<?xml version="1.0" encoding="UTF-8" standalone="no"?>
<!-- Created with Inkscape (http://www.inkscape.org/) -->

<svg
   xmlns:dc="http://purl.org/dc/elements/1.1/"
   xmlns:cc="http://creativecommons.org/ns#"
   xmlns:rdf="http://www.w3.org/1999/02/22-rdf-syntax-ns#"
   xmlns:svg="http://www.w3.org/2000/svg"
   xmlns="http://www.w3.org/2000/svg"
   xmlns:sodipodi="http://sodipodi.sourceforge.net/DTD/sodipodi-0.dtd"
   xmlns:inkscape="http://www.inkscape.org/namespaces/inkscape"
   width="480"
   height="454.1792"
   id="svg2"
   version="1.1"
   inkscape:version="0.48.5 r10040"
   sodipodi:docname="New document 1">
  <title
     id="title16653">Agricultural Credit and Policy Council (ACPC)</title>
  <defs
     id="defs4" />
  <sodipodi:namedview
     id="base"
     pagecolor="#ffffff"
     bordercolor="#666666"
     borderopacity="1.0"
     inkscape:pageopacity="0.0"
     inkscape:pageshadow="2"
     inkscape:zoom="0.2561881"
     inkscape:cx="1895.873"
     inkscape:cy="345.95362"
     inkscape:document-units="px"
     inkscape:current-layer="layer1"
     showgrid="false"
     inkscape:snap-bbox="false"
     inkscape:bbox-paths="false"
     inkscape:snap-bbox-edge-midpoints="false"
     inkscape:bbox-nodes="false"
     inkscape:snap-bbox-midpoints="false"
     inkscape:object-paths="false"
     inkscape:snap-intersection-paths="true"
     inkscape:object-nodes="false"
     inkscape:snap-smooth-nodes="false"
     inkscape:snap-midpoints="false"
     inkscape:snap-object-midpoints="true"
     inkscape:snap-center="true"
     inkscape:snap-global="true"
     inkscape:snap-nodes="true"
     fit-margin-top="0"
     fit-margin-left="0"
     fit-margin-right="0"
     fit-margin-bottom="0"
     inkscape:window-width="1366"
     inkscape:window-height="705"
     inkscape:window-x="-8"
     inkscape:window-y="-8"
     inkscape:window-maximized="1" />
  <metadata
     id="metadata7">
    <rdf:RDF>
      <cc:Work
         rdf:about="">
        <dc:format>image/svg+xml</dc:format>
        <dc:type
           rdf:resource="http://purl.org/dc/dcmitype/StillImage" />
        <dc:title>Agricultural Credit and Policy Council (ACPC)</dc:title>
        <cc:license
           rdf:resource="http://creativecommons.org/licenses/publicdomain/" />
      </cc:Work>
      <cc:License
         rdf:about="http://creativecommons.org/licenses/publicdomain/">
        <cc:permits
           rdf:resource="http://creativecommons.org/ns#Reproduction" />
        <cc:permits
           rdf:resource="http://creativecommons.org/ns#Distribution" />
        <cc:permits
           rdf:resource="http://creativecommons.org/ns#DerivativeWorks" />
      </cc:License>
    </rdf:RDF>
  </metadata>
  <g
     inkscape:label="Layer 1"
     inkscape:groupmode="layer"
     id="layer1"
     transform="translate(-242,-517.03259)">
    <path
       style="color:#000000;fill:#006c35;fill-opacity:1;stroke:none;stroke-width:1.00921535;marker:none;visibility:visible;display:inline;overflow:visible;enable-background:accumulate"
       d="m 242,704.89632 0,66.42471 0,25.16396 0,1.85928 c 0,36.79166 29.63305,66.42471 66.42471,66.42471 l 32.60108,0 66.39923,0 66.42471,0 0,-66.42471 0,-25.16396 0,-1.85928 c 0,-36.79166 -29.63305,-66.42471 -66.42471,-66.42471 l -32.60108,0 -66.39923,0 -66.42471,0 z m 37.21108,38.38269 45.64151,0 45.61605,0 22.41324,0 c 25.27967,0 45.64152,15.18154 45.64152,34.02738 l 0,0.94237 0,12.88762 0,34.02738 -45.64152,0 -45.61604,0 -22.41325,0 c -25.27965,0 -45.64151,-15.18155 -45.64151,-34.02738 l 0,-0.94238 0,-12.88761 0,-34.02738 z"
       id="rect2996"
       inkscape:connector-curvature="0" />
    <path
       inkscape:connector-curvature="0"
       style="color:#000000;fill:#006c35;fill-opacity:1;stroke:none;stroke-width:1.00921535;marker:none;visibility:visible;display:inline;overflow:visible;enable-background:accumulate"
       d="m 722,704.89632 0,66.42471 0,25.16396 0,1.85928 c 0,36.79166 -29.63305,66.42471 -66.42471,66.42471 l -32.60108,0 -66.39923,0 -66.42471,0 0,-66.42471 0,-25.16396 0,-1.85928 c 0,-36.79166 29.63305,-66.42471 66.42471,-66.42471 l 32.60108,0 66.39923,0 66.42471,0 z m -37.21108,38.38269 -45.64151,0 -45.61605,0 -22.41324,0 c -25.27967,0 -45.64152,15.18154 -45.64152,34.02738 l 0,0.94237 0,12.88762 0,34.02738 45.64152,0 45.61604,0 22.41325,0 c 25.27965,0 45.64151,-15.18155 45.64151,-34.02738 l 0,-0.94238 0,-12.88761 0,-34.02738 z"
       id="rect2996-0" />
    <path
       sodipodi:type="arc"
       style="color:#000000;fill:#fcd116;fill-opacity:1;stroke:none;stroke-width:1.01699996;marker:none;visibility:visible;display:inline;overflow:visible;enable-background:accumulate"
       id="path3841"
       sodipodi:cx="544.97253"
       sodipodi:cy="289.18201"
       sodipodi:rx="52.293285"
       sodipodi:ry="52.947376"
       d="m 597.26582,289.18201 c 0,29.24203 -23.4125,52.94737 -52.29329,52.94737 -28.88078,0 -52.29328,-23.70534 -52.29328,-52.94737 0,-29.24203 23.4125,-52.94738 52.29328,-52.94738 28.88079,0 52.29329,23.70535 52.29329,52.94738 z"
       transform="matrix(0.81813541,0,0,0.80802852,36.38815,437.10105)" />
    <path
       style="color:#000000;fill:#006c35;fill-opacity:1;stroke:none;stroke-width:1.48371458;marker:none;visibility:visible;display:inline;overflow:visible;enable-background:accumulate"
       d="m 481.28685,517.03259 c -98.49771,0 -179.54295,74.59267 -189.79943,170.36612 l 40.98058,0 c 10.02607,-73.2258 72.83918,-129.64024 148.81885,-129.64024 75.97968,0 138.77091,56.41444 148.79338,129.64024 l 41.00605,0 C 660.8298,591.62526 579.78456,517.03259 481.28685,517.03259 z"
       id="path3845"
       inkscape:connector-curvature="0" />
    <g
       style="font-size:114.65863037px;font-style:normal;font-variant:normal;font-weight:bold;font-stretch:normal;text-align:center;line-height:100%;letter-spacing:13.10384369px;word-spacing:0px;writing-mode:lr-tb;text-anchor:middle;fill:#006c35;fill-opacity:1;stroke:none;font-family:Swiss 721;-inkscape-font-specification:Swiss 721 Bold"
       id="text16640"
       transform="matrix(0.81502706,0,0,0.81502706,44.763451,179.6479)">
      <path
         d="m 385.33008,886.48015 -29.35223,82.43849 17.88651,0 5.38889,-16.96926 31.98934,0 5.6182,16.96926 17.77186,0 -29.6962,-82.43849 z m 9.86051,16.51063 11.46572,35.08509 -22.93143,0 z"
         id="path16645"
         inkscape:connector-curvature="0" />
      <path
         d="m 527.94556,940.59832 -16.62528,0 c -1.00093,4.94939 -3.12686,8.72352 -6.37781,11.3224 -3.25106,2.59891 -7.46948,3.90791 -12.65528,3.927 -7.09684,-0.0382 -12.56693,-2.45555 -16.41031,-7.25206 -3.84343,-4.79647 -5.78782,-11.74277 -5.83318,-20.83894 0.0191,-9.25613 1.9587,-16.28365 5.81885,-21.08258 3.8601,-4.79882 9.52606,-7.21139 16.99792,-7.23774 5.28851,0.0168 9.4735,1.24458 12.55496,3.68337 3.08135,2.43891 4.97319,5.9885 5.67553,10.64878 l 16.73995,0 c -0.63309,-9.35405 -3.95336,-16.587 -9.96084,-21.69887 -6.00763,-5.11172 -14.34415,-7.70105 -25.0096,-7.76802 -13.00884,0.055 -22.93623,3.78616 -29.78219,11.19341 -6.846,7.40739 -10.29526,18.16127 -10.34781,32.26165 0.0908,13.89982 3.49226,24.59637 10.20449,32.08967 6.71219,7.49333 16.19051,11.28179 28.43497,11.36539 10.77533,-0.11466 19.37939,-2.89509 25.81219,-8.3413 6.43267,-5.44621 10.02048,-12.87025 10.76344,-22.27216 z"
         id="path16647"
         inkscape:connector-curvature="0" />
      <path
         d="m 571.56543,939.56641 20.8676,0 c 8.17405,-0.0478 14.4133,-2.36 18.71778,-6.93676 4.30435,-4.57669 6.47328,-11.13125 6.5068,-19.6637 -0.01,-8.67805 -2.22633,-15.2565 -6.65012,-19.73536 -4.42391,-4.47872 -10.99758,-6.72886 -19.72103,-6.75044 l -36.69029,0 0,82.43849 16.96926,0 z m 0,-14.90543 0,-23.84869 17.42789,0 c 3.95323,0.01 6.91043,1.02243 8.87159,3.03841 1.96107,2.01612 2.94043,4.97809 2.9381,8.88593 0.0143,4.20893 -1.01764,7.2569 -3.09575,9.14391 -2.07821,1.88711 -5.28861,2.81392 -9.6312,2.78044 z"
         id="path16649"
         inkscape:connector-curvature="0" />
      <path
         d="m 716.06378,940.59832 -16.62529,0 c -1.00092,4.94939 -3.12685,8.72352 -6.3778,11.3224 -3.25106,2.59891 -7.46949,3.90791 -12.65528,3.927 -7.09684,-0.0382 -12.56694,-2.45555 -16.41031,-7.25206 -3.84343,-4.79647 -5.78782,-11.74277 -5.83318,-20.83894 0.0191,-9.25613 1.9587,-16.28365 5.81885,-21.08258 3.86009,-4.79882 9.52606,-7.21139 16.99792,-7.23774 5.28851,0.0168 9.47349,1.24458 12.55496,3.68337 3.08135,2.43891 4.97319,5.9885 5.67553,10.64878 l 16.73994,0 c -0.63308,-9.35405 -3.95336,-16.587 -9.96084,-21.69887 -6.00762,-5.11172 -14.34414,-7.70105 -25.00959,-7.76802 -13.00884,0.055 -22.93623,3.78616 -29.7822,11.19341 -6.84599,7.40739 -10.29526,18.16127 -10.3478,32.26165 0.0908,13.89982 3.49226,24.59637 10.20448,32.08967 6.7122,7.49333 16.19052,11.28179 28.43498,11.36539 10.77533,-0.11466 19.37938,-2.89509 25.81219,-8.3413 6.43267,-5.44621 10.02048,-12.87025 10.76344,-22.27216 z"
         id="path16651"
         inkscape:connector-curvature="0" />
    </g>
  </g>
</svg>
